<svg width="130" height="15" viewBox="0 0 130 15" fill="none" xmlns="http://www.w3.org/2000/svg">
<path fill-rule="evenodd" clip-rule="evenodd" d="M106.342 1.49666V13.2118H103.853L103.864 14.3987H114.99L114.967 13.2118H112.523V7.69561H121.234V13.2118H118.788L118.797 14.3987H130L129.989 13.2118H127.327V1.49666H129.902L129.943 0.402466H118.886L118.874 1.49666H121.191V6.45672H112.523V1.49666H115.012L115.03 0.402466H103.936L103.896 1.49666H106.342Z" fill="#231815"/>
<path fill-rule="evenodd" clip-rule="evenodd" d="M48.9549 2.47102C51.0357 3.624 52.227 5.44616 52.227 7.4763C52.227 9.59687 50.9268 11.5049 48.6939 12.6579C45.9709 14.0641 42.4832 14.7785 38.3148 14.7785C34.3392 14.7785 31.1034 14.1003 28.3668 12.6715C25.9093 11.3942 24.7566 9.77773 24.7566 7.61647C24.7566 5.61119 25.9366 3.68504 27.8653 2.55015C30.5883 0.95633 34.405 0.0249023 38.249 0.0249023C42.3062 0.0249023 46.1094 0.893028 48.9549 2.47102ZM33.6018 2.6971C32.4672 3.74834 31.8227 5.5298 31.8227 7.67072C31.8227 9.97441 32.5784 11.6926 34.0034 12.624C35.1561 13.3746 36.7264 13.7408 38.7142 13.7408C40.6384 13.7408 42.009 13.3678 43.1163 12.4725C44.4438 11.3964 45.1586 9.61044 45.1586 7.38813C45.1586 5.38512 44.5051 3.59009 43.4295 2.64058C42.4084 1.73628 40.5567 1.2344 38.6643 1.2344C36.5017 1.2344 34.7931 1.61872 33.604 2.71066L33.6018 2.6971Z" fill="#231815"/>
<path fill-rule="evenodd" clip-rule="evenodd" d="M22.181 0.486097L19.34 1.61647C18.4707 1.1808 17.558 0.836804 16.617 0.590089C15.1138 0.201521 13.5657 0.0129987 12.0129 0.0294308C8.96311 0.0294308 -0.0136719 1.0965 -0.0136719 7.60064C-0.0136719 13.7408 8.83604 14.783 12.5711 14.783C15.6753 14.783 17.8015 14.3829 19.5442 13.2208C20.9715 12.2713 21.836 10.9759 22.0902 9.82973C22.1063 9.75507 22.1185 9.67961 22.1265 9.60365H20.765C20.6888 10.1483 20.4591 10.6602 20.1024 11.0799C19.1471 12.2962 17.1525 13.673 13.6444 13.673C11.4093 13.673 6.64404 12.841 6.64404 7.32709C6.64404 1.81315 11.1211 1.14849 13.1974 1.14849C15.1783 1.14849 17.1048 1.71142 18.3869 2.66319C19.0574 3.17043 19.6256 3.79941 20.0616 4.51699C20.3561 4.97036 20.5924 5.45872 20.765 5.97065H22.1787V0.483835L22.181 0.486097Z" fill="#231815"/>
<path fill-rule="evenodd" clip-rule="evenodd" d="M50.9697 13.2547H51.1966C51.3478 13.2453 51.4993 13.2453 51.6505 13.2547C52.2271 13.2851 52.799 13.1357 53.2865 12.8274C53.5588 12.6353 53.6383 12.7461 53.9423 12.4431C54.3485 12.0384 54.9271 11.5049 55.2584 11.1432L65.422 -0.0045166L76.6135 13.2072H79.2752L79.3002 14.3896H66.4318V13.2072H68.7486L66.3955 10.37L57.5457 10.3587C57.5457 10.3587 56.216 11.8124 56.216 12.3685C56.216 13.153 57.0806 13.2592 59.1773 13.2231L59.209 14.4009H50.9743V13.2705L50.9697 13.2547ZM65.6126 9.20799L62.2429 5.11606L58.5033 9.20799H65.6126Z" fill="#231815"/>
<path fill-rule="evenodd" clip-rule="evenodd" d="M100.937 0.709909L98.098 1.84028C97.2291 1.40436 96.3163 1.06109 95.375 0.816164C93.8719 0.427595 92.3237 0.239073 90.7709 0.255505C87.7212 0.255505 78.7444 1.32031 78.7444 7.82445C78.7444 13.9646 87.5941 15.0046 91.3291 15.0046C94.4333 15.0046 96.5482 14.6067 98.3022 13.4469C99.7295 12.4951 100.594 11.1997 100.848 10.0558C100.864 9.98112 100.876 9.90566 100.885 9.82973L99.5072 9.81391C99.4374 10.3614 99.2104 10.8771 98.8537 11.2992C97.8983 12.5155 95.9037 13.8945 92.3956 13.8945C90.1605 13.8945 85.3975 13.0581 85.3975 7.54412C85.3975 2.03018 89.8746 1.36553 91.9486 1.36553C93.9296 1.36553 95.8561 1.93071 97.1382 2.88248C97.8087 3.39055 98.3769 4.02029 98.8128 4.73855C99.1047 5.18727 99.338 5.67119 99.5072 6.17864L100.93 6.19673V0.709909H100.937Z" fill="#231815"/>
</svg>
