<svg width="63" height="24" viewBox="0 0 63 24" fill="none" xmlns="http://www.w3.org/2000/svg">
<path d="M16.2792 0.0310059H20.8751L13.3459 23.7641H7.68013L0 0.153689L4.64581 0.171215L10.6511 18.3108L16.2792 0.0310059Z" fill="black"/>
<path d="M58.9524 0H16.2913V4.08493H58.9524V0Z" fill="black"/>
<path d="M21.6108 23.7385H17.4622L22.1066 7.65491H26.4008L31.0466 23.7385H26.8184L26.3267 21.6407H22.1026L21.6108 23.7385ZM25.622 18.2312L24.2153 12.4625L22.8773 18.2312H25.622Z" fill="black"/>
<path d="M36.4618 7.65491L41.1062 16.395L40.9661 12.724V7.65491H45.0487V23.7385H41.0375L36.3917 14.997L36.6032 18.6681V23.7385H32.5193V7.65491H36.4618Z" fill="black"/>
<path d="M58.2881 12.2871H54.2689C54.2213 11.7631 54.0102 11.4135 53.6356 11.2382C53.3998 11.0064 53.0481 10.8891 52.5792 10.8891C51.6361 10.8891 51.1726 11.2099 51.1726 11.8503C51.1726 12.4327 52.0174 12.9864 53.707 13.5112C56.991 14.4999 58.6331 16.1896 58.6331 18.5803C58.5387 22.1359 56.5208 23.9424 52.5792 24C49.1542 23.8265 47.2305 22.0784 46.8083 18.7556H50.8909C51.0257 19.3394 51.2669 19.7762 51.5943 20.0674C51.9464 20.307 52.3651 20.4292 52.7908 20.4165C54.0115 20.4165 54.6214 20.0377 54.6205 19.28C54.6205 18.6401 53.7995 18.0865 52.1575 17.6191C48.8249 16.6304 47.1591 14.8823 47.16 12.3747C47.2498 9.04928 49.1034 7.32992 52.7207 7.21667C56.0047 7.27599 57.8606 8.96614 58.2881 12.2871Z" fill="black"/>
<path d="M62.8141 7.2302H62.6268C62.6268 7.48671 62.5508 7.73745 62.4084 7.95073C62.266 8.16401 62.0635 8.33025 61.8267 8.42841C61.5898 8.52657 61.3292 8.55225 61.0778 8.50221C60.8263 8.45217 60.5954 8.32865 60.4141 8.14727C60.2328 7.96589 60.1094 7.7348 60.0594 7.48322C60.0094 7.23164 60.035 6.97086 60.1331 6.73388C60.2312 6.4969 60.3974 6.29434 60.6105 6.15183C60.8237 6.00933 61.0743 5.93326 61.3307 5.93326C61.6742 5.93398 62.0035 6.07084 62.2464 6.31391C62.4893 6.55698 62.6261 6.88645 62.6268 7.2302H63.0041C63.0046 6.89989 62.9073 6.57683 62.7244 6.30187C62.5414 6.02692 62.2811 5.8124 61.9764 5.68544C61.6716 5.55848 61.3361 5.52478 61.0121 5.5886C60.6882 5.65242 60.3905 5.8109 60.1566 6.04399C59.9227 6.27709 59.7631 6.57434 59.6981 6.89816C59.633 7.22199 59.6653 7.55785 59.7909 7.8633C59.9166 8.16875 60.1299 8.43006 60.404 8.61421C60.6781 8.79836 61.0005 8.89707 61.3307 8.89787C61.55 8.89841 61.7673 8.85568 61.9701 8.77215C62.173 8.68861 62.3574 8.56589 62.5128 8.41102C62.6682 8.25614 62.7916 8.07214 62.8759 7.86953C62.9602 7.66692 63.0038 7.44967 63.0041 7.2302H62.8141Z" fill="black"/>
<path d="M62.267 8.0432V8.08904H61.8304L61.2053 7.26666L61.0489 7.2761V7.79783C61.0274 7.96501 61.1082 8.04455 61.2874 8.03781V8.08904H60.5491V8.03781C60.7296 8.05129 60.8051 7.96096 60.7781 7.76817V6.61145C60.7983 6.44428 60.7229 6.36339 60.5491 6.37148V6.33643H61.2874C61.7321 6.34272 61.9566 6.49551 61.9611 6.7948C61.9611 7.04556 61.8017 7.19476 61.4828 7.24239L62.0218 7.91647C62.0499 7.95527 62.0868 7.98694 62.1294 8.00894C62.1719 8.03095 62.2191 8.04268 62.267 8.0432ZM61.0543 6.52112V7.17768C61.4707 7.19251 61.6795 7.06309 61.6795 6.79211C61.6795 6.54944 61.5259 6.42675 61.2214 6.42675C61.0907 6.42001 61.0355 6.45237 61.0489 6.52112H61.0543Z" fill="black"/>
</svg>
